<?xml version="1.0" encoding="UTF-8"?>
<svg id="Capa_2" data-name="Capa 2" xmlns="http://www.w3.org/2000/svg" viewBox="0 0 51.31 45.14">
  <defs>
    <style>
      .cls-1 {
        fill: #1a1b26;
      }
    </style>
  </defs>
  <g id="Capa_1-2" data-name="Capa 1">
    <g>
      <path class="cls-1" d="M25.31,0l-12.32,21.34c-.43.74-.43,1.95,0,2.7l4.94,8.55c.43.74,1.13.74,1.56,0l5.02-8.69c.43-.74.79-1.37.81-1.4h0c4.02-6.96,4.02-15.54,0-22.5"/>
      <path class="cls-1" d="M51.25,45.14h.06s-.29-.61-.72-1.35l-11.48-19.89c-.43-.74-1.48-1.35-2.33-1.35h-9.94c-.86,0-1.21.61-.78,1.35l5.8,10.04c4,6.93,11.4,11.2,19.4,11.2"/>
      <path class="cls-1" d="M31.07,35.29c.43-.74.08-1.35-.78-1.35h-10.04c-.86,0-1.58,0-1.62,0h0c-8,0-18.29,10.11-18.29,10.11-.61.6-.41,1.09.45,1.09h23.03c.86,0,1.91-.61,2.33-1.35l4.91-8.5Z"/>
    </g>
  </g>
</svg>